<svg width="1200" height="780" viewBox="0 0 1200 780" fill="none" xmlns="http://www.w3.org/2000/svg" role="img" aria-labelledby="title desc">
  <title id="title">정돈된 운영 흐름을 상징하는 추상 그래픽</title>
  <desc id="desc">문서, 일정, 체크리스트, 데이터 흐름을 차분한 색상으로 표현한 포트폴리오용 이미지입니다.</desc>
  <rect width="1200" height="780" rx="36" fill="#F7F5F0"/>
  <rect x="70" y="70" width="1060" height="640" rx="28" fill="#FFFFFF" stroke="#E4DED4" stroke-width="2"/>
  <rect x="116" y="118" width="310" height="245" rx="20" fill="#F0EEE8" stroke="#E4DED4"/>
  <rect x="472" y="118" width="300" height="245" rx="20" fill="#F8F6F1" stroke="#E4DED4"/>
  <rect x="818" y="118" width="266" height="245" rx="20" fill="#F0EEE8" stroke="#E4DED4"/>
  <rect x="116" y="414" width="450" height="224" rx="20" fill="#F8F6F1" stroke="#E4DED4"/>
  <rect x="612" y="414" width="472" height="224" rx="20" fill="#F0EEE8" stroke="#E4DED4"/>
  <circle cx="174" cy="173" r="20" fill="#3E6B5B"/>
  <rect x="213" y="157" width="146" height="13" rx="6.5" fill="#2F3437"/>
  <rect x="213" y="184" width="101" height="10" rx="5" fill="#8A8F89"/>
  <rect x="150" y="232" width="238" height="12" rx="6" fill="#D9D0C1"/>
  <rect x="150" y="267" width="190" height="12" rx="6" fill="#D9D0C1"/>
  <rect x="150" y="302" width="215" height="12" rx="6" fill="#D9D0C1"/>
  <path d="M500 175H742" stroke="#3E6B5B" stroke-width="10" stroke-linecap="round"/>
  <path d="M500 224H690" stroke="#C89F65" stroke-width="10" stroke-linecap="round"/>
  <path d="M500 273H724" stroke="#D9D0C1" stroke-width="10" stroke-linecap="round"/>
  <path d="M500 322H640" stroke="#D9D0C1" stroke-width="10" stroke-linecap="round"/>
  <rect x="862" y="156" width="46" height="46" rx="12" fill="#3E6B5B"/>
  <path d="M875 180L883 188L897 170" stroke="white" stroke-width="5" stroke-linecap="round" stroke-linejoin="round"/>
  <rect x="930" y="164" width="108" height="12" rx="6" fill="#2F3437"/>
  <rect x="930" y="190" width="76" height="10" rx="5" fill="#8A8F89"/>
  <rect x="862" y="246" width="46" height="46" rx="12" fill="#C89F65"/>
  <path d="M875 270L883 278L897 260" stroke="white" stroke-width="5" stroke-linecap="round" stroke-linejoin="round"/>
  <rect x="930" y="254" width="118" height="12" rx="6" fill="#2F3437"/>
  <rect x="930" y="280" width="86" height="10" rx="5" fill="#8A8F89"/>
  <rect x="152" y="458" width="360" height="16" rx="8" fill="#2F3437"/>
  <rect x="152" y="499" width="272" height="11" rx="5.5" fill="#8A8F89"/>
  <rect x="152" y="532" width="321" height="11" rx="5.5" fill="#8A8F89"/>
  <rect x="152" y="565" width="238" height="11" rx="5.5" fill="#8A8F89"/>
  <circle cx="674" cy="526" r="36" fill="#3E6B5B"/>
  <circle cx="824" cy="526" r="36" fill="#C89F65"/>
  <circle cx="974" cy="526" r="36" fill="#3E6B5B"/>
  <path d="M710 526H788" stroke="#D9D0C1" stroke-width="8" stroke-linecap="round"/>
  <path d="M860 526H938" stroke="#D9D0C1" stroke-width="8" stroke-linecap="round"/>
  <path d="M659 525L670 536L690 512" stroke="white" stroke-width="6" stroke-linecap="round" stroke-linejoin="round"/>
  <path d="M809 525L820 536L840 512" stroke="white" stroke-width="6" stroke-linecap="round" stroke-linejoin="round"/>
  <path d="M959 525L970 536L990 512" stroke="white" stroke-width="6" stroke-linecap="round" stroke-linejoin="round"/>
</svg>
